<?xml version="1.0" standalone="no"?>
<!DOCTYPE svg PUBLIC "-//W3C//DTD SVG 20010904//EN"
 "http://www.w3.org/TR/2001/REC-SVG-20010904/DTD/svg10.dtd">
<svg version="1.0" xmlns="http://www.w3.org/2000/svg"
 width="225.000000pt" height="225.000000pt" viewBox="0 0 225.000000 225.000000"
 preserveAspectRatio="xMidYMid meet">

<g transform="translate(0.000000,225.000000) scale(0.100000,-0.100000)"
fill="#000000" stroke="none">
<path d="M1282 2161 c0 -99 -64 -179 -273 -342 -188 -146 -233 -207 -233 -311
1 -71 42 -159 110 -236 44 -50 201 -178 209 -170 2 2 -25 51 -59 109 -99 163
-113 228 -70 312 9 17 80 96 158 176 175 180 206 233 206 350 0 53 -6 89 -20
119 -10 23 -21 42 -23 42 -3 0 -5 -22 -5 -49z"/>
<path d="M1535 1835 c-257 -52 -385 -146 -410 -300 -10 -63 8 -118 70 -221 54
-88 57 -98 53 -144 -3 -32 -14 -61 -31 -84 -15 -19 -27 -37 -27 -40 0 -9 121
53 144 73 30 26 56 87 56 130 0 29 -14 68 -50 136 -59 112 -64 159 -26 216 20
30 183 161 286 231 29 20 19 20 -65 3z"/>
<path d="M720 1119 c-138 -13 -213 -29 -255 -52 -35 -20 -40 -27 -40 -57 0
-45 41 -73 143 -97 63 -15 120 -18 322 -18 144 0 278 6 325 13 126 20 233 52
283 86 54 37 68 62 29 52 -145 -36 -739 -56 -819 -28 -21 8 -38 17 -38 22 0
16 45 41 113 61 101 31 94 33 -63 18z"/>
<path d="M1641 1102 l-34 -19 53 -7 c42 -6 60 -14 87 -41 29 -29 33 -39 33
-84 0 -84 -37 -140 -165 -250 l-50 -43 40 5 c104 13 217 82 270 165 56 88 43
214 -29 265 -43 30 -156 35 -205 9z"/>
<path d="M689 864 c-84 -26 -124 -88 -81 -127 110 -100 594 -103 849 -6 l26
10 -53 39 c-59 44 -73 46 -141 26 -70 -21 -272 -39 -355 -32 -80 7 -159 28
-187 50 -15 12 -16 18 -7 35 12 24 11 24 -51 5z"/>
<path d="M758 634 c-86 -26 -114 -100 -52 -136 17 -10 69 -28 115 -39 153 -39
427 -15 575 50 24 11 44 22 44 24 0 3 -25 24 -55 47 -60 46 -51 45 -175 15
-94 -22 -256 -30 -317 -16 -53 13 -90 42 -78 60 8 14 1 13 -57 -5z"/>
<path d="M440 524 c-75 -14 -128 -36 -154 -63 -102 -107 58 -215 389 -263 133
-19 580 -16 715 6 149 23 225 44 305 82 77 36 93 47 118 84 24 35 21 77 -8
105 -31 32 -55 32 -55 1 0 -57 -88 -120 -210 -149 -140 -34 -226 -41 -490 -41
-213 0 -283 3 -355 17 -122 24 -178 43 -209 72 -56 52 -21 88 97 100 38 4 65
11 60 15 -24 22 -152 43 -203 34z"/>
<path d="M1940 280 c-89 -77 -315 -155 -516 -179 -271 -33 -507 -23 -824 35
-50 9 87 -38 168 -57 233 -56 497 -73 693 -43 300 44 429 97 498 201 49 74 41
93 -19 43z"/>
</g>
</svg>
