<?xml version="1.0" encoding="UTF-8"?>
<svg version="1.1" xmlns="http://www.w3.org/2000/svg" width="2300" height="1600">
<path d="M0 0 C2.25782795 -0.00323372 4.51565571 -0.00659913 6.77348328 -0.01008606 C11.47684207 -0.01601403 16.18018267 -0.01793288 20.88354492 -0.01733398 C25.60168336 -0.01725329 30.31972352 -0.0241163 35.0378418 -0.0378418 C74.2923274 -0.15011889 113.37333371 0.81985315 152.51171875 3.98046875 C153.57388611 4.06444916 154.63605347 4.14842957 155.73040771 4.23495483 C259.27127498 12.45346483 362.39660254 29.95979262 471.69921875 64.16796875 C472.50125732 64.42384766 473.3032959 64.67972656 474.12963867 64.94335938 C506.23093263 75.21159299 537.70947515 86.91292369 568.69921875 100.16796875 C569.79443848 100.63638184 570.8896582 101.10479492 572.01806641 101.58740234 C599.50509728 113.42043958 626.70783208 126.3157478 652.69921875 141.16796875 C653.77204102 141.77511719 654.84486328 142.38226563 655.95019531 143.0078125 C686.67085716 160.44409711 716.17174122 180.00276 743.69921875 202.16796875 C744.61703125 202.90273438 745.53484375 203.6375 746.48046875 204.39453125 C751.88480932 208.76568906 757.18240787 213.2578214 762.44921875 217.79296875 C763.37045532 218.5826001 763.37045532 218.5826001 764.31030273 219.38818359 C768.08353607 222.65726778 771.6486084 226.06975633 775.15429688 229.62353516 C776.88860872 231.35729886 778.69678045 232.96592057 780.57421875 234.54296875 C787.15484009 240.23259687 793.18053729 246.42287638 798.8359375 253.02734375 C800.98808652 255.49983361 803.21902594 257.89068232 805.44921875 260.29296875 C810.6676023 266.03004705 815.48531874 272.01308767 820.18359375 278.18115234 C821.21995551 279.53970776 822.26189616 280.89402064 823.30859375 282.24462891 C867.11120903 338.87844253 891.01659229 409.03148745 882.11181641 480.7644043 C874.42467885 536.84263228 848.30639474 589.00658334 811.18676758 631.40917969 C810.07092054 632.72849071 808.98733175 634.07519715 807.9206543 635.43457031 C801.56699848 643.47709683 794.48806863 650.65116473 787.21508789 657.85791016 C785.13170131 659.92294199 783.0565271 661.99596271 780.98242188 664.0703125 C779.63719051 665.41062991 778.29150298 666.75048966 776.9453125 668.08984375 C776.33674911 668.69729431 775.72818573 669.30474487 775.10118103 669.93060303 C770.78854468 674.19668362 766.29856434 678.21419622 761.69921875 682.16796875 C761.18266724 682.61743866 760.66611572 683.06690857 760.13391113 683.52999878 C751.63185165 690.91987644 742.79441692 697.80667673 733.79736328 704.58007812 C731.85652512 706.04891818 729.93010389 707.53436237 728.0078125 709.02734375 C700.22977735 730.45855705 669.67877189 748.80002269 638.69921875 765.16796875 C637.35827148 765.88364014 637.35827148 765.88364014 635.99023438 766.61376953 C551.89614616 811.48888885 460.55768906 842.31364091 122.39416504 897.02081299 C119.68661086 897.1686572 116.97955228 897.32391177 114.27246094 897.47998047 C55.99968786 900.77487591 -3.0463506 900.70081809 -61.30078125 897.16796875 C-62.3578125 897.10480469 -63.41484375 897.04164063 -64.50390625 896.9765625 C-169.69959491 890.63497843 -274.56044369 875.08731384 -516.30078125 796.16796875 C-517.23059814 795.75704987 -517.23059814 795.75704987 -518.17919922 795.33782959 C-546.25746109 782.91130153 -573.75644379 769.64999055 -600.30078125 754.16796875 C-601.36651367 753.55195801 -602.43224609 752.93594727 -603.53027344 752.30126953 C-619.86883773 742.84848073 -635.75780474 732.87985661 -651.30078125 722.16796875 C-651.99977539 721.68634277 -652.69876953 721.2047168 -653.41894531 720.70849609 C-667.16768987 711.17674373 -680.5000812 700.93593961 -693.30078125 690.16796875 C-693.8323584 689.72130859 -694.36393555 689.27464844 -694.91162109 688.81445312 C-707.26962603 678.40400496 -719.05065769 667.50691752 -730.51809692 656.12588501 C-731.5223268 655.12969329 -732.52803257 654.13498667 -733.53536987 653.14193726 C-740.26379944 646.49893642 -746.40043534 639.55680424 -752.30078125 632.16796875 C-753.23570645 631.06626419 -754.17704487 629.96991782 -755.12890625 628.8828125 C-802.85510851 574.1516354 -829.19273692 503.29263887 -825.0234375 430.65625 C-821.21356391 378.09290928 -799.12386081 326.13916468 -766.66943359 284.91748047 C-765.35423366 283.23629554 -764.06722601 281.53757378 -762.7890625 279.828125 C-758.26695125 273.80105947 -753.53578897 267.99602035 -748.61328125 262.29296875 C-748.09064697 261.68638428 -747.5680127 261.0797998 -747.02954102 260.45483398 C-743.77610423 256.72777945 -740.37606194 253.20172417 -736.85620117 249.72607422 C-735.07878373 247.94558793 -733.42412128 246.08947327 -731.80078125 244.16796875 C-726.80819351 238.39702658 -721.43561488 233.21668918 -715.65625 228.2421875 C-713.28456405 226.15368793 -710.97198619 224.01291491 -708.6628418 221.85595703 C-702.41144113 216.02107337 -696.0048116 210.48337278 -689.30078125 205.16796875 C-688.25776389 204.33209191 -687.21479713 203.49615191 -686.171875 202.66015625 C-655.52991004 178.22067071 -622.62071132 157.04580628 -588.30078125 138.16796875 C-587.20846191 137.56694336 -586.11614258 136.96591797 -584.99072266 136.34667969 C-529.3165707 105.84312577 -470.57881667 82.81071091 -410.30078125 63.16796875 C-409.46514648 62.89531189 -408.62951172 62.62265503 -407.76855469 62.34173584 C-361.15412537 47.19086918 -312.9007056 35.67699312 -264.75189209 26.62969971 C-262.31491625 26.17063145 -259.87927256 25.70501297 -257.44384766 25.23779297 C-188.81083506 12.11406561 -119.08514181 4.44680829 -49.30078125 1.16796875 C-48.43820395 1.12743913 -47.57562664 1.0869095 -46.68691063 1.04515171 C-31.11838678 0.33048177 -15.58389735 0.00541972 0 0 Z " fill="#7579B0" transform="translate(1121.30078125,350.83203125)"/>
<path d="M0 0 C1.50096725 -0.01007584 1.50096725 -0.01007584 3.03225708 -0.02035522 C6.33828711 -0.03934285 9.64411415 -0.04326006 12.95019531 -0.04541016 C15.25319502 -0.05183834 17.5561939 -0.05856671 19.85919189 -0.06558228 C24.6877227 -0.07755753 29.51618195 -0.08126292 34.34472656 -0.08007812 C40.5194912 -0.07987511 46.6937947 -0.10715883 52.86845016 -0.14162254 C57.62638437 -0.16390769 62.38420798 -0.16791513 67.14218903 -0.16685867 C69.41787554 -0.1692129 71.69356517 -0.17802628 73.96920013 -0.19352341 C77.15947828 -0.21321213 80.34876697 -0.20733306 83.5390625 -0.1953125 C84.4713266 -0.20655151 85.4035907 -0.21779053 86.36410522 -0.22937012 C93.09957101 -0.16517732 99.43540664 1.10321549 104.61991501 5.70244789 C109.52227639 11.25925918 110.38584546 16.08752205 110.02832031 23.29052734 C109.64556778 25.82147226 109.190806 28.34234929 108.67285156 30.84912109 C108.53105972 31.54667007 108.38926788 32.24421906 108.24317932 32.96290588 C107.78285047 35.21947468 107.31182154 37.47366452 106.84082031 39.72802734 C106.5172536 41.306637 106.19450794 42.88541516 105.87255859 44.46435547 C105.2288436 47.61666924 104.58139732 50.76817377 103.93017578 53.91894531 C102.7347799 59.70550215 101.56430716 65.49697531 100.40332031 71.29052734 C100.10941406 72.75329102 100.10941406 72.75329102 99.80957031 74.24560547 C98.02706242 83.17585194 96.36463165 92.12760831 94.72705078 101.08544922 C94.53385254 102.14183594 94.3406543 103.19822266 94.14160156 104.28662109 C93.97442627 105.20628662 93.80725098 106.12595215 93.63500977 107.07348633 C92.80276625 111.48655388 91.91562833 115.8882465 91.02832031 120.29052734 C92.0546608 120.28608612 93.08100128 120.2816449 94.13844299 120.27706909 C103.91750003 120.23612836 113.69653919 120.20635674 123.47566319 120.186903 C128.50049536 120.17656476 133.52525715 120.16259316 138.55004883 120.13964844 C181.7488555 119.94774912 181.7488555 119.94774912 200.02832031 122.29052734 C201.22287842 122.43135742 202.41743652 122.5721875 203.64819336 122.71728516 C206.47642454 123.07957647 209.28003545 123.50041351 212.09082031 123.97802734 C213.06921875 124.14391357 214.04761719 124.3097998 215.05566406 124.48071289 C240.66553699 129.13237763 265.27658284 138.86661745 284.02832031 157.29052734 C284.64191406 157.89123047 285.25550781 158.49193359 285.88769531 159.11083984 C300.10752657 174.17864269 304.596551 192.48061138 308.02832031 212.29052734 C308.37443359 210.46908203 308.37443359 210.46908203 308.72753906 208.61083984 C309.82544714 202.83695326 310.92648182 197.06366503 312.02832031 191.29052734 C312.32512695 189.73446777 312.32512695 189.73446777 312.62792969 188.14697266 C314.08293344 180.52586077 315.55029137 172.90720691 317.02832031 165.29052734 C317.24665527 164.16340332 317.46499023 163.0362793 317.68994141 161.875 C318.33950489 158.53336208 318.99540308 155.19302956 319.65332031 151.85302734 C319.84724365 150.85368164 320.04116699 149.85433594 320.2409668 148.82470703 C324.4994584 127.36089931 324.4994584 127.36089931 332.12229538 122.19294643 C336.3428897 119.84509302 340.02362759 119.73155444 344.77471924 119.7893219 C345.63144659 119.7837875 346.48817394 119.77825311 347.37086272 119.772551 C350.22996252 119.7589835 353.08818335 119.7738936 355.94726562 119.78881836 C358.0029894 119.78503321 360.05871062 119.77953155 362.11442566 119.77244568 C367.69633291 119.75848196 373.27793211 119.76967537 378.85982227 119.78615689 C384.72619155 119.80004291 390.59254354 119.79354185 396.45892334 119.7900238 C406.3315524 119.78732023 416.20406002 119.80079541 426.07666016 119.82397461 C437.4251464 119.85043785 448.77342776 119.85237909 460.12193418 119.84058625 C471.08946125 119.82972006 482.05691558 119.83607367 493.02443695 119.85014153 C497.66325387 119.85584021 502.30201647 119.85586722 506.94083405 119.85107613 C554.20265934 119.8147066 554.20265934 119.8147066 576.02832031 123.29052734 C576.79075294 123.41034029 577.55318558 123.53015324 578.33872223 123.65359688 C608.08709306 128.44540157 636.81263336 140.80256718 659.02832031 161.29052734 C659.97449219 162.15419922 660.92066406 163.01787109 661.89550781 163.90771484 C686.62202124 187.51347979 700.31625581 221.32856658 701.29309082 255.3416748 C701.35450336 258.82511923 701.35928451 262.30666854 701.34082031 265.79052734 C701.33866516 266.52931122 701.33651001 267.26809509 701.33428955 268.02926636 C701.11302993 315.61223582 686.2144418 365.92500399 656.02832031 403.29052734 C654.97064453 404.634375 654.97064453 404.634375 653.89160156 406.00537109 C636.52034535 427.74283175 616.24919167 446.43339421 592.02832031 460.29052734 C590.89394531 460.94537109 589.75957031 461.60021484 588.59082031 462.27490234 C543.18253462 487.8375807 490.71591552 488.81334925 439.99865723 488.496521 C434.45975249 488.46531793 428.92080402 488.45202258 423.38183594 488.43701172 C412.5972193 488.40525034 401.81279174 488.35434535 391.02832031 488.29052734 C390.8779834 489.17853027 390.8779834 489.17853027 390.72460938 490.08447266 C388.80465183 501.38218205 386.8091995 512.65342729 384.52476501 523.88346863 C383.32418593 529.78811721 382.17685094 535.70085453 381.06347656 541.62255859 C380.82197372 542.90617783 380.82197372 542.90617783 380.57559204 544.21572876 C380.24805352 545.95700068 379.92056976 547.69828289 379.59313965 549.4395752 C378.09296247 557.39397757 376.56609821 565.34331588 375.02832031 573.29052734 C374.89343201 573.98764832 374.7585437 574.68476929 374.61956787 575.40301514 C373.86467297 579.28767731 373.08229897 583.16574714 372.27832031 587.04052734 C372.10437744 587.92458252 371.93043457 588.8086377 371.7512207 589.71948242 C370.20341321 596.95688194 367.26127627 602.0338745 361.02832031 606.29052734 C356.16769648 608.90316069 351.26584037 608.60023799 345.88891602 608.61279297 C344.87037033 608.62272278 343.85182465 608.63265259 342.80241394 608.6428833 C339.43628218 608.67206676 336.070339 608.68572131 332.70410156 608.69677734 C330.35865781 608.70828644 328.01321408 608.71980183 325.66777039 608.73132324 C320.7492892 608.75232707 315.83087323 608.76402254 310.91235352 608.77099609 C304.62539691 608.78195375 298.3393092 608.82998871 292.0526247 608.88694 C287.20628891 608.92428486 282.36016035 608.93460886 277.51369286 608.93766785 C275.19693446 608.94370272 272.88017892 608.95969841 270.56356239 608.98603821 C267.31327899 609.02035156 264.06509089 609.01635473 260.81469727 609.00341797 C259.86732697 609.02184753 258.91995667 609.0402771 257.94387817 609.05926514 C250.7719009 608.97034952 245.64880125 606.75895469 240.02832031 602.29052734 C235.11975891 596.2947829 235.61422862 589.71317634 236.02832031 582.29052734 C236.56570333 578.18348094 237.36426488 574.15535386 238.21582031 570.10302734 C238.44068115 568.98516846 238.66554199 567.86730957 238.8972168 566.71557617 C239.36605991 564.38963782 239.83980173 562.06468171 240.31835938 559.74072266 C241.21808052 555.36835016 242.09203117 550.99104189 242.96508789 546.61328125 C243.3825677 544.52148427 243.80167856 542.43001216 244.22241211 540.33886719 C245.53512797 533.8097924 246.79891013 527.27325011 248.02832031 520.72802734 C250.19333255 509.21414956 252.60399962 497.75217686 255.02832031 486.29052734 C254.41688675 486.61453522 253.80545319 486.93854309 253.17549133 487.27236938 C248.66627327 488.73117039 244.38544501 488.5854155 239.67358398 488.58105469 C238.11168587 488.59113052 238.11168587 488.59113052 236.51823425 488.60140991 C233.07753724 488.6204004 229.63703521 488.62431474 226.19628906 488.62646484 C223.80121277 488.63289227 221.40613726 488.6396206 219.01106262 488.64663696 C213.99002258 488.65861254 208.96905136 488.66231751 203.94799805 488.66113281 C197.52203786 488.66092967 191.09652015 488.68822648 184.67066479 488.72267723 C179.72319014 488.7449429 174.775822 488.74897044 169.82830238 488.74791336 C167.45968413 488.75027001 165.09106296 488.75909711 162.72249413 488.77457809 C159.40509673 488.79422945 156.08865384 488.78840247 152.77124023 488.77636719 C151.79797791 488.7876062 150.82471558 488.79884521 149.82196045 488.8104248 C143.72714 488.75439269 139.11518544 487.76565569 134.02832031 484.29052734 C129.74663648 479.89616762 127.74164373 475.42823323 127.76269531 469.29052734 C127.88836256 462.81649761 129.01889206 456.62725326 130.27832031 450.29052734 C130.62056641 448.50787476 130.62056641 448.50787476 130.96972656 446.68920898 C132.40476255 439.27301919 133.92047626 431.87475749 135.51000977 424.49023438 C137.16011973 416.79519151 138.62692166 409.06692097 140.1003418 401.33642578 C141.55658927 393.7085158 143.05786998 386.09087459 144.59082031 378.47802734 C146.62868419 368.34533713 148.58521378 358.19940572 150.50585938 348.04394531 C151.46304588 342.99948297 152.43333568 337.95754176 153.40332031 332.91552734 C153.61158447 331.83231201 153.81984863 330.74909668 154.03442383 329.63305664 C155.41970808 322.43449795 156.81454801 315.23783495 158.21386719 308.04199219 C158.84256153 304.8009504 159.46746438 301.55920911 160.09066772 298.31710815 C160.27830185 297.34102097 160.27830185 297.34102097 160.46972656 296.34521484 C160.59537994 295.69118683 160.72103333 295.03715881 160.85049438 294.36331177 C161.65259684 290.20123406 162.47570181 286.04382554 163.31184387 281.88845825 C163.88195444 279.04316947 164.44045275 276.19566692 164.99710083 273.34771729 C165.38824082 271.36689339 165.7938108 269.38893558 166.19995117 267.41113281 C168.18103425 257.20160088 169.43549201 246.54822384 167.02832031 236.29052734 C153.63381427 231.120718 139.54391811 230.98087838 125.37597656 230.87646484 C123.73830756 230.85769714 122.10064766 230.83811986 120.46299744 230.81777954 C116.20697463 230.76704271 111.95092067 230.7271093 107.69476318 230.68963623 C103.32996286 230.64922425 98.96528551 230.59830415 94.60058594 230.54833984 C86.07658226 230.4522753 77.55251631 230.36765461 69.02832031 230.29052734 C68.86570961 231.27944725 68.86570961 231.27944725 68.69981384 232.28834534 C64.74879672 256.27351424 64.74879672 256.27351424 62.59082031 267.22802734 C62.38110596 268.30624756 62.1713916 269.38446777 61.95532227 270.49536133 C60.37003293 278.62078346 58.7443784 286.7381145 57.11230469 294.85424805 C55.06925613 305.03434663 53.07791129 315.22438999 51.09082031 325.41552734 C50.83241364 326.74065842 50.83241364 326.74065842 50.56878662 328.09255981 C48.82455327 337.04005017 47.08453148 345.9883409 45.35644531 354.93896484 C45.16343338 355.93861771 45.16343338 355.93861771 44.96652222 356.95846558 C44.34707107 360.16725124 43.72786826 363.37608465 43.10888672 366.58496094 C41.59593171 374.41069744 40.0429702 382.22750307 38.46582031 390.04052734 C36.82616115 398.17326249 35.27180134 406.31726514 33.77832031 414.47802734 C33.13307011 417.95371169 32.48585255 421.42902605 31.83837891 424.90429688 C31.22498113 428.21086852 30.62434518 431.51961974 30.02685547 434.82910156 C29.09435186 439.98638048 28.13870488 445.1390227 27.17175293 450.28994751 C26.78757857 452.35691293 26.41074264 454.42525716 26.04162598 456.4949646 C25.51634309 459.43341797 24.96458254 462.36582368 24.40722656 465.29833984 C24.18218193 466.6094297 24.18218193 466.6094297 23.95259094 467.94700623 C22.73819619 474.1318879 20.67422164 479.86435073 16.02832031 484.29052734 C9.64053969 488.18756837 3.75606898 488.8746849 -3.59692383 488.82397461 C-4.6192662 488.83259018 -5.64160858 488.84120575 -6.69493103 488.8500824 C-10.04916233 488.87264724 -13.40255189 488.86602175 -16.75683594 488.85693359 C-19.10135647 488.86217258 -21.44587489 488.86845007 -23.79039001 488.87571716 C-28.69345043 488.88610331 -33.59622028 488.88158413 -38.49926758 488.86694336 C-44.77281283 488.8497405 -51.04544348 488.87327987 -57.31888676 488.90843296 C-62.15659111 488.93042115 -66.99407699 488.92896223 -71.83181572 488.92066765 C-74.14460695 488.91984927 -76.45741441 488.92669085 -78.77015877 488.94143867 C-82.00595079 488.95891421 -85.24010315 488.94431637 -88.47583008 488.92163086 C-89.42410675 488.93332306 -90.37238342 488.94501526 -91.34939575 488.95706177 C-97.72746492 488.86636772 -102.06683248 487.44964197 -106.97167969 483.29052734 C-111.50721111 478.29437103 -112.69647492 473.81655531 -112.39355469 467.11865234 C-110.86329894 453.23299831 -107.88618368 439.56599206 -104.83496094 425.94897461 C-103.08006461 418.03501503 -101.64167919 410.08553478 -100.31542969 402.08935547 C-99.37454579 396.43996131 -98.26170707 390.87117445 -96.97167969 385.29052734 C-97.555625 386.25539063 -97.555625 386.25539063 -98.15136719 387.23974609 C-105.86076406 399.69202077 -114.83906977 410.74385164 -124.97167969 421.29052734 C-125.58930176 421.94069824 -126.20692383 422.59086914 -126.84326172 423.26074219 C-136.80586626 433.70318028 -147.11621073 443.04164952 -158.97167969 451.29052734 C-159.6086377 451.73444824 -160.2455957 452.17836914 -160.90185547 452.63574219 C-210.20197308 486.39158249 -268.32441308 489.04835524 -326.01422119 488.56518555 C-331.56052268 488.52336183 -337.10690473 488.50580983 -342.65332031 488.48583984 C-353.42630781 488.44366238 -364.19895372 488.37592259 -374.97167969 488.29052734 C-375.03686295 489.25212769 -375.03686295 489.25212769 -375.10336304 490.2331543 C-375.69267146 497.77616738 -376.95449118 505.06659875 -378.44824219 512.47802734 C-378.69440277 513.72317108 -378.94056335 514.96831482 -379.19418335 516.25119019 C-379.85264382 519.58096679 -380.51801733 522.90932185 -381.18536377 526.23732758 C-381.87485603 529.67912326 -382.55974627 533.12183482 -383.24511719 536.56445312 C-384.06242524 540.66858483 -384.88034149 544.77259043 -385.70123291 548.87600708 C-387.23050781 556.52586902 -388.72731558 564.18094228 -390.18261719 571.84521484 C-390.63994966 574.22836417 -391.09834745 576.61130514 -391.55731201 578.99414062 C-391.83023281 580.42431156 -392.09893737 581.85529453 -392.36309814 583.28710938 C-395.30392469 599.20407691 -395.30392469 599.20407691 -401.04199219 604.03271484 C-401.72003906 604.40654297 -402.39808594 604.78037109 -403.09667969 605.16552734 C-404.12148438 605.74947266 -404.12148438 605.74947266 -405.16699219 606.34521484 C-408.12032672 607.8921996 -409.84074839 608.41913824 -413.18252563 608.43769836 C-414.06561401 608.44485367 -414.94870239 608.45200897 -415.85855103 608.4593811 C-416.8299704 608.46207001 -417.80138977 608.46475891 -418.80224609 608.4675293 C-420.33422638 608.47738609 -420.33422638 608.47738609 -421.89715576 608.48744202 C-425.28918527 608.50720913 -428.68117037 608.51884674 -432.07324219 608.52880859 C-433.80969057 608.53492188 -433.80969057 608.53492188 -435.58121872 608.54115868 C-441.71120781 608.5620364 -447.84117442 608.57632937 -453.97119141 608.58569336 C-460.2996872 608.59674653 -466.62783028 608.63112936 -472.95620155 608.67086506 C-477.82388964 608.69703205 -482.69149383 608.70538542 -487.55924606 608.70897484 C-489.89158885 608.71384247 -492.22392785 608.7254614 -494.55620193 608.74401283 C-497.82599896 608.76839957 -501.09488568 608.76743938 -504.36474609 608.76049805 C-505.32402008 608.77330811 -506.28329407 608.78611816 -507.27163696 608.79931641 C-513.94427491 608.74783507 -519.47928232 607.52519694 -524.49616432 602.87854481 C-529.2547555 597.50332722 -530.21258517 593.12781063 -530.15698242 586.19433594 C-529.82032188 580.91865683 -528.54814165 575.86352216 -527.34667969 570.72802734 C-524.92175085 559.93194232 -522.78101414 549.12183459 -520.84667969 538.22802734 C-519.19438271 528.95823855 -517.50072872 519.71175539 -515.50366211 510.50878906 C-513.22425006 499.94554721 -511.24703582 489.32063834 -509.20761108 478.70904541 C-507.64210173 470.56698585 -506.05638496 462.42886808 -504.47167969 454.29052734 C-502.76575776 445.52724419 -501.0611561 436.76372762 -499.37011719 427.99755859 C-499.11352978 426.66788652 -498.85693803 425.33821529 -498.6003418 424.00854492 C-498.10104534 421.42116385 -497.60185775 418.83376177 -497.1027832 416.24633789 C-495.57706711 408.35708229 -494.00530553 400.47829341 -492.40917969 392.60302734 C-490.6124961 383.72862974 -488.97670876 374.83313257 -487.40917969 365.91552734 C-485.77212795 356.60712366 -483.99794665 347.35230336 -482.00292969 338.11474609 C-478.98517019 324.11929703 -476.28498945 310.05193083 -473.62524414 295.98461914 C-471.99861138 287.39349444 -470.3296662 278.81070391 -468.65917969 270.22802734 C-468.35594645 268.66886599 -468.05272387 267.10970256 -467.74951172 265.55053711 C-466.38585492 258.54086507 -465.01991282 251.53165734 -463.64561462 244.52406311 C-462.91961301 240.82148284 -462.19521522 237.11859025 -461.47167969 233.41552734 C-461.32824127 232.6815976 -461.18480286 231.94766785 -461.03701782 231.1914978 C-458.56337135 218.51486186 -456.22067737 205.8161609 -453.90344238 193.11013794 C-451.61835183 180.59890148 -449.14541922 168.14063229 -446.47851562 155.70458984 C-445.85504112 152.73497719 -445.28245781 149.75715753 -444.71533203 146.77636719 C-441.42117603 129.5900354 -441.42117603 129.5900354 -434.97167969 123.29052734 C-429.97782088 120.17512344 -426.04933994 119.8614497 -420.3522644 119.90957642 C-419.49709705 119.90489644 -418.64192969 119.90021647 -417.76084816 119.89539468 C-414.90111631 119.88344951 -412.04186415 119.89290087 -409.18212891 119.90234375 C-407.12817608 119.89827718 -405.07422543 119.89293482 -403.02027893 119.88641357 C-397.43829927 119.87272553 -391.85648584 119.87804984 -386.27450323 119.88755083 C-380.40859381 119.89516215 -374.54269834 119.88809564 -368.67678833 119.88339233 C-358.80240339 119.87792961 -348.92808567 119.88513009 -339.05371094 119.89941406 C-327.7058395 119.91564212 -316.35813062 119.91052634 -305.01026332 119.89393485 C-295.22887995 119.88021513 -285.4475449 119.87845394 -275.66615498 119.88625085 C-269.84256348 119.89088316 -264.01904764 119.89167889 -258.19546127 119.88164139 C-201.86162301 119.79783913 -147.72840441 123.88530011 -103.97167969 163.29052734 C-103.30652344 163.88349609 -102.64136719 164.47646484 -101.95605469 165.08740234 C-83.00742057 182.97349623 -72.94831516 207.48484561 -66.97167969 232.29052734 C-66.82134277 231.39466919 -66.82134277 231.39466919 -66.66796875 230.48071289 C-64.96535164 220.38566055 -63.26190541 210.29820516 -61.09667969 200.29052734 C-59.3175247 192.06171289 -57.68847617 183.80750516 -56.09667969 175.54052734 C-55.96989838 174.88260193 -55.84311707 174.22467651 -55.7124939 173.54681396 C-55.06005666 170.15982667 -54.40878698 166.77261641 -53.75830078 163.38525391 C-52.47975938 156.72780944 -51.19525564 150.07151992 -49.90917969 143.41552734 C-49.65998779 142.12445068 -49.4107959 140.83337402 -49.15405273 139.50317383 C-47.61088738 131.52838259 -46.02271844 123.56383053 -44.40917969 115.60302734 C-42.61248761 106.72863135 -40.97670874 97.83313244 -39.40917969 88.91552734 C-37.77306299 79.61244032 -35.99980136 70.36284346 -34.00683594 61.13037109 C-32.75405585 55.3195778 -31.57945869 49.49341229 -30.40917969 43.66552734 C-30.19390625 42.60253418 -29.97863281 41.53954102 -29.75683594 40.44433594 C-28.65410892 34.94176215 -27.659826 29.444104 -26.81030273 23.8972168 C-25.51452255 15.59656294 -23.65577097 9.79041406 -17.47167969 3.91552734 C-11.65406869 0.1340802 -6.76759809 -0.00652299 0 0 Z " fill="#FCFCFC" transform="translate(1076.9716796875,462.70947265625)"/>
<path d="M0 0 C26.54038951 -0.07037811 53.08076483 -0.1231283 79.62122917 -0.15543652 C91.9470623 -0.17084285 104.27283713 -0.19181176 116.59863281 -0.22631836 C127.35371479 -0.25641308 138.1087545 -0.27562017 148.86387742 -0.28226548 C154.54779241 -0.28614407 160.23158659 -0.29512593 165.91546249 -0.31719017 C212.32701363 -0.49027494 212.32701363 -0.49027494 233 3 C233.89047405 3.14957972 234.7809481 3.29915943 235.69840622 3.45327187 C268.37125919 9.07838474 300.0304794 24.93306136 319.75 52.25 C344.39236528 89.54897032 344.25954476 131.89350164 335.6875 174.375 C328.36507565 208.69248633 312.19821421 240.52371109 288 266 C286.88960638 267.30723613 285.78500182 268.61942184 284.6875 269.9375 C267.65236904 289.44611602 245.32668402 303.89680008 221.76855469 314.22460938 C220.29973447 314.86858687 218.84000479 315.53325153 217.3828125 316.203125 C205.37088475 321.44015924 192.09695217 323.97781579 179.25 326.1875 C178.37263184 326.3421875 177.49526367 326.496875 176.59130859 326.65625 C157.05746005 329.83192426 137.43511487 330.2862657 117.69140625 330.1953125 C115.25805275 330.19156981 112.82469772 330.1887288 110.39134216 330.18673706 C104.07048176 330.17919934 97.74971726 330.15963895 91.42889404 330.1373291 C84.94544776 330.11665478 78.46198556 330.10768979 71.97851562 330.09765625 C59.31897014 330.07638101 46.65949024 330.04276793 34 330 C33.80083984 331.28631821 33.60167969 332.57263641 33.39648438 333.89793396 C33.12899612 335.61222716 32.86141295 337.32650555 32.59375 339.04077148 C32.46323242 339.8854171 32.33271484 340.73006271 32.19824219 341.60030365 C31.06721389 348.82359058 29.6078669 355.92947444 28 363.0625 C26.11882647 371.60314287 24.38797367 380.11738902 23.04296875 388.75805664 C22.10787508 394.65395976 20.82119654 400.43955398 19.47998047 406.25463867 C18.29627348 411.46261025 17.347498 416.66366735 16.5 421.9375 C14.94344535 431.34168432 12.96371915 440.67233404 11 450 C-21.34 450 -53.68 450 -87 450 C-84.01659832 432.09958994 -80.93058356 414.2480597 -77.30859375 396.46484375 C-75.86660001 389.38149977 -74.49337409 382.28538013 -73.125 375.1875 C-72.87015991 373.86726063 -72.61527665 372.5470296 -72.36035156 371.22680664 C-71.96934364 369.20161098 -71.57838308 367.17640625 -71.18759155 365.15116882 C-63.73216813 326.51697967 -56.11722223 287.91386131 -48.51778603 249.30780602 C-46.36518134 238.37226612 -44.2139849 227.43644982 -42.06437683 216.50032043 C-40.97437064 210.95494111 -39.88396663 205.40964205 -38.79150391 199.86474609 C-35.22097478 181.73920908 -31.70906 163.6091511 -28.43969727 145.42666626 C-26.35030534 133.81127842 -24.099008 122.23618284 -21.74658203 110.67138672 C-20.17630154 102.94938605 -18.61554241 95.22548578 -17.0625 87.5 C-16.89013824 86.64308563 -16.71777649 85.78617126 -16.54019165 84.90328979 C-14.03870809 72.44418861 -11.68110697 59.96623099 -9.44766235 47.45651245 C-7.37569978 35.86225681 -5.08208136 24.32617054 -2.59082031 12.81469727 C-2.03233562 10.1540485 -1.49531221 7.49008888 -0.96307373 4.82408142 C-0.78277996 3.92135467 -0.60248619 3.01862791 -0.41672897 2.0885458 C-0.27920841 1.39932569 -0.14168785 0.71010557 0 0 Z " fill="#000000" transform="translate(653,602)"/>
<path d="M0 0 C26.64402515 -0.04685347 53.28804406 -0.08205398 79.9321022 -0.10362434 C92.30517204 -0.11390889 104.67821619 -0.12791488 117.05126953 -0.15087891 C127.84364934 -0.17089959 138.63601052 -0.18373691 149.42840838 -0.18817699 C155.13557667 -0.19076975 160.84269172 -0.19680417 166.54984283 -0.21146011 C171.93749729 -0.2251816 177.3250773 -0.22919367 182.71274757 -0.22621536 C184.67489593 -0.22675909 186.63704715 -0.23064878 188.59918022 -0.23841095 C207.02330812 -0.3076319 224.96479499 1.11041357 243 5 C244.88525391 5.37898437 244.88525391 5.37898437 246.80859375 5.765625 C267.76034205 10.40750277 286.64489956 20.20129182 303 34 C303.91845703 34.71736328 303.91845703 34.71736328 304.85546875 35.44921875 C325.83519043 52.20419098 337.55338527 80.85163304 340.48461914 106.8972168 C345.51586929 161.36912731 329.76800289 217.03912119 294.73754883 259.24462891 C284.88297147 270.8734507 274.16258408 281.78133323 262 291 C261.48002441 291.39638672 260.96004883 291.79277344 260.42431641 292.20117188 C238.02193351 309.15003872 212.68568823 320.09236491 185 325 C184.15630859 325.15017578 183.31261719 325.30035156 182.44335938 325.45507812 C160.95734799 329.16644957 139.66414855 330.29517439 117.88671875 330.1953125 C115.45050677 330.19157116 113.01429326 330.18872951 110.57807922 330.18673706 C104.24074979 330.1791887 97.90351558 330.15961841 91.56622314 330.1373291 C85.06955248 330.11667846 78.57286607 330.10769472 72.07617188 330.09765625 C59.38407453 330.07636209 46.69204239 330.04273354 34 330 C33.93533539 330.61130264 33.87067078 331.22260529 33.80404663 331.85243225 C33.71708527 332.65788986 33.6301239 333.46334747 33.54052734 334.29321289 C33.41259293 335.48860435 33.41259293 335.48860435 33.28207397 336.70814514 C32.91765887 339.66902277 32.29955816 342.53254793 31.625 345.4375 C30.48538473 350.58485316 29.51587866 355.73244047 28.6875 360.9375 C26.47441231 374.68721926 23.690761 388.33747404 21 402 C20.66282959 403.71872314 20.66282959 403.71872314 20.31884766 405.47216797 C19.69490195 408.64874805 19.06713618 411.82454337 18.4375 415 C18.26428223 415.87922119 18.09106445 416.75844238 17.91259766 417.66430664 C15.75278548 428.47602646 13.34300889 439.22215912 11 450 C-21.01 450 -53.02 450 -86 450 C-86 445.34941076 -85.98991325 442.07613506 -85.10131836 437.7277832 C-84.90342209 436.74201294 -84.70552582 435.75624268 -84.50163269 434.74060059 C-84.17404716 433.16164001 -84.17404716 433.16164001 -83.83984375 431.55078125 C-83.50204643 429.88082092 -83.50204643 429.88082092 -83.15742493 428.17712402 C-82.42344079 424.55433675 -81.68035911 420.93347677 -80.9375 417.3125 C-80.17258352 413.54498307 -79.41011952 409.77697469 -78.64767456 406.00895691 C-78.1407582 403.50489988 -77.63304859 401.0010033 -77.12454224 398.49726868 C-75.11741115 388.61162336 -73.16200114 378.71693875 -71.25 368.8125 C-70.97526974 367.39127424 -70.7005302 365.97005027 -70.42578125 364.54882812 C-70.02166717 362.45777586 -69.61770782 360.36669437 -69.21426392 358.2755127 C-68.2289155 353.17143047 -67.2315607 348.06976543 -66.23046875 342.96875 C-63.21238193 327.57351249 -60.27672767 312.1689689 -57.50021362 296.72824097 C-55.55132833 285.89980208 -53.45946322 275.10711109 -51.2734375 264.32421875 C-49.84881941 257.28669426 -48.48510397 250.23773509 -47.125 243.1875 C-46.87005598 241.86693946 -46.61509159 240.54638286 -46.36010742 239.22583008 C-45.96919064 237.20097939 -45.57832757 235.17611839 -45.18760681 233.15122986 C-37.73211621 194.5170321 -30.11722634 155.91388221 -22.51778603 117.30780602 C-20.36518134 106.37226612 -18.2139849 95.43644982 -16.06437683 84.50032043 C-14.97437064 78.95494111 -13.88396663 73.40964205 -12.79150391 67.86474609 C-11.89425101 63.310378 -10.99924061 58.75557513 -10.10604858 54.20040894 C-9.79958496 52.63931673 -9.49239224 51.07836734 -9.18423462 49.51760864 C-6.97444938 38.32209636 -4.91627174 27.10026342 -2.88037109 15.87207031 C-2.60007122 14.3280059 -2.31973196 12.78394863 -2.03935242 11.23989868 C-1.35911447 7.493348 -0.67940854 3.74670117 0 0 Z " fill="#000000" transform="translate(1418,602)"/>
<path d="M0 0 C1.35513954 0.00539291 1.35513954 0.00539291 2.73765564 0.01089478 C3.68389801 0.01074875 4.63014038 0.01060272 5.60505676 0.01045227 C8.74880729 0.0111518 11.89249938 0.01894608 15.03623962 0.02676392 C17.20957405 0.02862795 19.3829089 0.03005192 21.5562439 0.03105164 C27.28884533 0.03487795 33.0214216 0.0447092 38.75401306 0.05575562 C44.59873616 0.0659673 50.44346331 0.07054873 56.28819275 0.07559204 C67.76541737 0.08633137 79.24262328 0.10340915 90.71983337 0.12442017 C88.65335901 11.60006326 88.65335901 11.60006326 87.53623962 17.03457642 C87.33248718 18.03480835 87.12873474 19.03504028 86.91880798 20.06558228 C86.70877136 21.09562378 86.49873474 22.12566528 86.28233337 23.18692017 C84.77551806 30.62761045 83.34560804 38.06361309 82.15733337 45.56192017 C81.09891652 52.23664136 79.71983188 58.79234584 78.20005798 65.37612915 C76.84343491 71.33944271 75.82032874 77.32225117 74.86656189 83.36123657 C73.87624666 89.49570784 72.59199432 95.53823805 71.16514587 101.58535767 C70.17430488 105.8387239 69.36762237 110.09384178 68.65953064 114.40420532 C68.48261185 115.47756134 68.30569305 116.55091736 68.12341309 117.65679932 C67.99023178 118.4711142 67.85705048 119.28542908 67.71983337 120.12442017 C68.27216298 120.12165479 68.82449259 120.11888941 69.39355946 120.11604023 C82.97229418 120.04913958 96.55099919 120.00002637 110.12986469 119.96898365 C116.69710836 119.95345735 123.26423138 119.93246331 129.83140564 119.89810181 C136.19220316 119.86503585 142.55288609 119.84746975 148.91376305 119.83978844 C151.31691983 119.8343283 153.72007175 119.82367226 156.12317848 119.80723 C179.23388214 119.65567676 202.32396037 121.06913939 224.71983337 127.12442017 C225.39514099 127.30198853 226.07044861 127.47955688 226.76622009 127.6625061 C241.56571873 131.63025699 255.31260634 137.70554493 266.71983337 148.12442017 C267.413349 148.71481079 268.10686462 149.30520142 268.82139587 149.91348267 C280.94428973 160.91301956 287.91600519 178.8873103 288.89683533 195.03921509 C289.41197232 220.81043092 285.65285028 244.65009133 280.09092712 269.76504517 C278.98460495 274.80520362 278.01676507 279.83948405 277.21983337 284.93692017 C275.94750887 293.05657588 274.41445845 301.11991551 272.84483337 309.18692017 C272.71415466 309.85873322 272.58347595 310.53054626 272.44883728 311.22271729 C270.53697849 321.03642604 268.58382657 330.84174872 266.61265564 340.64370728 C263.90740962 354.12272167 261.32131117 367.62508243 258.71983337 381.12442017 C252.97016629 410.96003821 252.97016629 410.96003821 250.03233337 425.74942017 C249.84211609 426.71347778 249.6518988 427.6775354 249.45591736 428.67080688 C248.01895939 435.8649886 246.37159487 442.96678702 244.71983337 450.12442017 C212.37983337 450.12442017 180.03983337 450.12442017 146.71983337 450.12442017 C147.84536324 438.86912151 147.84536324 438.86912151 148.77061462 433.94473267 C149.07708923 432.30117798 149.07708923 432.30117798 149.38975525 430.62442017 C149.60180603 429.51067017 149.81385681 428.39692017 150.03233337 427.24942017 C150.23278259 426.17434204 150.43323181 425.09926392 150.63975525 423.99160767 C152.05579085 416.45110851 153.55318057 408.927846 155.06419373 401.40597534 C156.48704879 394.31353706 157.88260237 387.21594067 159.27061462 380.11660767 C159.72300307 377.8039441 160.17539572 375.49128135 160.62779236 373.17861938 C160.85731598 372.0052301 161.0868396 370.83184082 161.32331848 369.62289429 C164.69349968 352.39932893 168.07731265 335.18073167 171.65733337 317.99942017 C173.60994592 308.62064158 175.52016454 299.24289053 177.15415955 289.80264282 C178.02949891 284.77728626 178.98827708 279.77793631 180.03303528 274.78544617 C188.04068239 241.71983616 188.04068239 241.71983616 182.71983337 209.12442017 C179.04813096 203.52665518 174.8936683 200.57108808 168.71983337 198.12442017 C168.06498962 197.84856079 167.41014587 197.57270142 166.73545837 197.28848267 C153.02513594 192.08268354 137.55005308 192.79498797 123.12998962 192.71035767 C121.08875787 192.69160481 119.04753353 192.67202849 117.00631714 192.65167236 C111.68497633 192.60077953 106.3636105 192.56092709 101.04216003 192.52352905 C95.59155814 192.48321772 90.14105643 192.43225047 84.6905365 192.38223267 C74.03370627 192.28598211 63.37681891 192.20141783 52.71983337 192.12442017 C52.65516876 192.80677734 52.59050415 193.48913452 52.52388 194.19216919 C52.39343796 195.53825256 52.39343796 195.53825256 52.26036072 196.91152954 C52.17507111 197.80013672 52.08978149 198.6887439 52.00190735 199.60427856 C51.65853246 202.67210268 51.05037753 205.62016761 50.34483337 208.62442017 C49.13527524 214.02360718 48.14817113 219.41316326 47.28233337 224.87442017 C46.30126361 231.01427091 45.11761115 237.0660651 43.71983337 243.12442017 C42.40721596 248.83323503 41.26122606 254.5262662 40.34483337 260.31192017 C39.02027026 268.63787964 37.45472334 276.91182572 35.84483337 285.18692017 C35.71433594 285.85782684 35.5838385 286.52873352 35.4493866 287.2199707 C33.53734194 297.0345944 31.58401063 306.84083345 29.61265564 316.64370728 C26.90740962 330.12272167 24.32131117 343.62508243 21.71983337 357.12442017 C12.23578601 406.3381243 12.23578601 406.3381243 9.09483337 420.56192017 C7.75348975 426.66995951 6.74002197 432.81690358 5.80918884 438.99917603 C5.69591248 439.72242065 5.58263611 440.44566528 5.46592712 441.19082642 C5.3698114 441.82963745 5.27369568 442.46844849 5.17466736 443.12661743 C4.71983337 445.12442017 4.71983337 445.12442017 2.71983337 450.12442017 C-28.96016663 450.12442017 -60.64016663 450.12442017 -93.28016663 450.12442017 C-93.28016663 442.26212342 -93.28016663 442.26212342 -92.46766663 438.66738892 C-92.28373352 437.82579224 -92.09980042 436.98419556 -91.91029358 436.11709595 C-91.59838074 434.72853394 -91.59838074 434.72853394 -91.28016663 433.31192017 C-89.05552104 423.02950954 -87.03393803 412.72056792 -85.08824158 402.38244629 C-81.90738176 385.48230439 -78.60627952 368.60911605 -75.21766663 351.74942017 C-71.58859312 333.68771608 -68.01269087 315.61738665 -64.5202179 297.52879333 C-63.52448479 292.37534329 -62.51750969 287.22415668 -61.50672913 282.07363892 C-58.49001611 266.68490107 -55.55571871 251.28685144 -52.78038025 235.85266113 C-50.83149496 225.02422225 -48.73962985 214.23153126 -46.55360413 203.44863892 C-45.12898603 196.41111443 -43.76527059 189.36215526 -42.40516663 182.31192017 C-42.15022261 180.99135963 -41.89525822 179.67080303 -41.64027405 178.35025024 C-41.24935727 176.32539955 -40.8584942 174.30053855 -40.46777344 172.27565002 C-36.05408381 149.40400185 -31.58280496 126.5436707 -27.09266663 103.68692017 C-26.86375732 102.52141632 -26.63484802 101.35591248 -26.39900208 100.15509033 C-23.87542514 87.30739918 -21.34769516 74.46054128 -18.81069946 61.61549377 C-17.84666137 56.73443038 -16.88372607 51.85314958 -15.92098904 46.97182941 C-15.25864865 43.61413778 -14.59561069 40.25658697 -13.93095398 36.89935303 C-13.19030832 33.15697736 -12.45183064 29.41417947 -11.71376038 25.67129517 C-11.49652313 24.57673508 -11.27928589 23.48217499 -11.0554657 22.35444641 C-9.81577407 16.05511146 -8.70555624 9.75191837 -7.72976685 3.40597534 C-6.83100986 -1.15488466 -4.12893572 0.00694259 0 0 Z " fill="#000000" transform="translate(1077.2801666259766,481.8755798339844)"/>
<path d="M0 0 C11.09377804 -0.07014399 22.18750156 -0.12313304 33.2814579 -0.15543652 C38.43527804 -0.17095652 43.58894421 -0.19193812 48.74267578 -0.22631836 C53.73536013 -0.25940801 58.72789834 -0.27695508 63.72068405 -0.28463173 C65.60604522 -0.29008781 67.49140028 -0.30073527 69.37669754 -0.31719017 C93.60558055 -0.51985163 122.49109583 0.83917934 141.375 18.1796875 C152.70987405 30.87692622 154.23491344 44.4658294 154.25 60.75 C154.25100708 61.49642761 154.25201416 62.24285522 154.25305176 63.01190186 C154.24301206 73.97909224 153.73788568 84.32926605 151 95 C150.54753906 96.8871875 150.54753906 96.8871875 150.0859375 98.8125 C149.13874361 102.57047252 148.09797891 106.28345988 147 110 C146.64164063 111.22332031 146.28328125 112.44664062 145.9140625 113.70703125 C138.55270927 137.29794514 125.23691982 159.71123099 103.33203125 172.26171875 C78.3373124 185.30116762 52.26286977 188.18586464 24.44921875 188.09765625 C22.69659974 188.09578656 20.9439802 188.09436527 19.19136047 188.09336853 C14.62287909 188.08958668 10.05443051 188.07979444 5.48596191 188.06866455 C0.806401 188.05835625 -3.87316533 188.05385091 -8.55273438 188.04882812 C-17.70183717 188.03816741 -26.85091584 188.02114436 -36 188 C-35.37769717 182.92599447 -34.67843739 177.91138508 -33.765625 172.87890625 C-33.64744415 172.22547745 -33.52926331 171.57204865 -33.40750122 170.89881897 C-33.02431705 168.7862202 -32.63747753 166.67431524 -32.25 164.5625 C-32.11716614 163.83512634 -31.98433228 163.10775269 -31.84747314 162.3583374 C-28.62784118 144.74125579 -25.12101435 127.18955979 -21.37841797 109.67626953 C-20.16599329 103.94222849 -19.12892528 98.18900481 -18.14404297 92.41210938 C-17.08231601 86.26752538 -15.79224733 80.18126954 -14.48046875 74.0859375 C-13.37543824 68.90663421 -12.38961524 63.72037952 -11.5 58.5 C-10.33405699 51.65809265 -8.94324731 44.88149283 -7.48266602 38.09692383 C-6.08823613 31.56266145 -4.90803487 25.00778666 -3.80859375 18.41796875 C-3.12546622 14.49722385 -2.28807193 10.61407936 -1.44946289 6.72387695 C-1.17832169 5.46436722 -0.90718048 4.20485748 -0.62782288 2.90718079 C-0.31705055 1.4681263 -0.31705055 1.4681263 0 0 Z " fill="#777BB3" transform="translate(737,673)"/>
<path d="M0 0 C11.35451529 -0.09349992 22.70893603 -0.16416468 34.06376076 -0.20724869 C39.33870866 -0.22794755 44.61338939 -0.25593312 49.88818359 -0.30175781 C54.99758833 -0.3458578 60.10673938 -0.36926934 65.21632004 -0.37950897 C67.14635578 -0.3867872 69.07638081 -0.40099129 71.00630569 -0.42292023 C95.02845325 -0.68451973 123.55203912 1.93549816 141.7421875 19.39453125 C154.79460777 34.45675326 155.07511279 53.1216426 154 72 C151.10604942 105.42046158 139.62173512 142.08040872 113.875 164.75 C81.98961548 189.36407162 42.13680407 188.32715843 3.93664551 188.1373291 C-0.69000401 188.11657995 -5.31667639 188.10767432 -9.94335938 188.09765625 C-18.96229841 188.07644038 -27.98113769 188.04247207 -37 188 C-33.80305407 169.77021941 -33.80305407 169.77021941 -32.203125 161.41796875 C-32.04889572 160.60794907 -31.89466644 159.79792938 -31.73576355 158.96336365 C-31.24176831 156.37116693 -30.74598846 153.77931601 -30.25 151.1875 C-29.89719501 149.33968515 -29.54441222 147.49186606 -29.19165039 145.64404297 C-26.25177944 130.25917683 -23.27021967 114.88254502 -20.26864624 99.50961304 C-19.30493337 94.57129859 -18.34796798 89.63171402 -17.39453125 84.69140625 C-13.94636689 66.83850189 -10.43054034 48.99914357 -6.8795166 31.16641235 C-6.37749902 28.64379634 -5.8764372 26.12098992 -5.37634277 23.59799194 C-4.6730359 20.0517284 -3.96594565 16.50624003 -3.2578125 12.9609375 C-3.04458344 11.88249069 -2.83135437 10.80404388 -2.61166382 9.69291687 C-2.41384308 8.70676895 -2.21602234 7.72062103 -2.01220703 6.70458984 C-1.84012726 5.84054535 -1.66804749 4.97650085 -1.49075317 4.08627319 C-1 2 -1 2 0 0 Z " fill="#777BB3" transform="translate(1503,673)"/>
<path d="M0 0 C11.35451529 -0.09349992 22.70893603 -0.16416468 34.06376076 -0.20724869 C39.33870866 -0.22794755 44.61338939 -0.25593312 49.88818359 -0.30175781 C54.99758833 -0.3458578 60.10673938 -0.36926934 65.21632004 -0.37950897 C67.14635578 -0.3867872 69.07638081 -0.40099129 71.00630569 -0.42292023 C95.02845325 -0.68451973 123.55203912 1.93549816 141.7421875 19.39453125 C154.79460777 34.45675326 155.07511279 53.1216426 154 72 C151.10604942 105.42046158 139.62173512 142.08040872 113.875 164.75 C81.98961548 189.36407162 42.13680407 188.32715843 3.93664551 188.1373291 C-0.69000401 188.11657995 -5.31667639 188.10767432 -9.94335938 188.09765625 C-18.96229841 188.07644038 -27.98113769 188.04247207 -37 188 C-33.80305407 169.77021941 -33.80305407 169.77021941 -32.203125 161.41796875 C-32.04889572 160.60794907 -31.89466644 159.79792938 -31.73576355 158.96336365 C-31.24176831 156.37116693 -30.74598846 153.77931601 -30.25 151.1875 C-29.89719501 149.33968515 -29.54441222 147.49186606 -29.19165039 145.64404297 C-26.25177944 130.25917683 -23.27021967 114.88254502 -20.26864624 99.50961304 C-19.30493337 94.57129859 -18.34796798 89.63171402 -17.39453125 84.69140625 C-13.94636689 66.83850189 -10.43054034 48.99914357 -6.8795166 31.16641235 C-6.37749902 28.64379634 -5.8764372 26.12098992 -5.37634277 23.59799194 C-4.6730359 20.0517284 -3.96594565 16.50624003 -3.2578125 12.9609375 C-3.04458344 11.88249069 -2.83135437 10.80404388 -2.61166382 9.69291687 C-2.41384308 8.70676895 -2.21602234 7.72062103 -2.01220703 6.70458984 C-1.84012726 5.84054535 -1.66804749 4.97650085 -1.49075317 4.08627319 C-1 2 -1 2 0 0 Z M15 19 C13.81020581 23.64777045 12.70368558 28.26090721 11.8515625 32.984375 C11.65046875 34.08652344 11.449375 35.18867187 11.2421875 36.32421875 C11.03851562 37.45472656 10.83484375 38.58523438 10.625 39.75 C9.18528816 47.71577406 7.68061924 55.66244161 6.08203125 63.59765625 C4.17534166 73.06247489 2.35797841 82.54261811 0.56509399 92.02957153 C-2.74066361 109.51180837 -6.14681439 126.96948996 -9.69238281 144.40478516 C-10.40133921 147.89440479 -11.10695077 151.38469016 -11.8125 154.875 C-12.03188232 155.94693604 -12.25126465 157.01887207 -12.47729492 158.12329102 C-12.67685791 159.11127686 -12.8764209 160.0992627 -13.08203125 161.1171875 C-13.25968018 161.98972168 -13.4373291 162.86225586 -13.62036133 163.76123047 C-14.08359397 166.11450753 -14.08359397 166.11450753 -14 169 C-6.42667482 169.09403619 1.14658753 169.16442428 8.72036934 169.20724869 C12.23990087 169.22783625 15.75902388 169.25560038 19.27832031 169.30175781 C48.98581131 169.68072954 82.67561885 167.96313023 105.65063477 146.58007812 C127.18259341 125.32611012 135.24482732 89.29240908 135.4375 60.1875 C135.4475708 59.21619141 135.4576416 58.24488281 135.46801758 57.24414062 C135.3406309 46.78578444 132.93161271 38.05490303 125.5 30.4375 C114.21641356 21.62042617 97.15195584 18.81344978 83.22875977 18.88647461 C82.48646622 18.88632858 81.74417267 18.88618256 80.97938538 18.8860321 C78.55002824 18.88672326 76.12074983 18.89447797 73.69140625 18.90234375 C71.99747255 18.90421077 70.30353831 18.90563333 68.60960388 18.90663147 C64.16926562 18.91043432 59.7289605 18.92024538 55.28863525 18.93133545 C50.75037077 18.94159773 46.21210089 18.94613938 41.67382812 18.95117188 C32.78253759 18.9618698 23.89127156 18.9789192 15 19 Z " fill="#FCFCFC" transform="translate(1503,673)"/>
<path d="M0 0 C11.09377804 -0.07014399 22.18750156 -0.12313304 33.2814579 -0.15543652 C38.43527804 -0.17095652 43.58894421 -0.19193812 48.74267578 -0.22631836 C53.73536013 -0.25940801 58.72789834 -0.27695508 63.72068405 -0.28463173 C65.60604522 -0.29008781 67.49140028 -0.30073527 69.37669754 -0.31719017 C93.60558055 -0.51985163 122.49109583 0.83917934 141.375 18.1796875 C152.70987405 30.87692622 154.23491344 44.4658294 154.25 60.75 C154.25100708 61.49642761 154.25201416 62.24285522 154.25305176 63.01190186 C154.24301206 73.97909224 153.73788568 84.32926605 151 95 C150.54753906 96.8871875 150.54753906 96.8871875 150.0859375 98.8125 C149.13874361 102.57047252 148.09797891 106.28345988 147 110 C146.64164063 111.22332031 146.28328125 112.44664062 145.9140625 113.70703125 C138.55270927 137.29794514 125.23691982 159.71123099 103.33203125 172.26171875 C78.3373124 185.30116762 52.26286977 188.18586464 24.44921875 188.09765625 C22.69659974 188.09578656 20.9439802 188.09436527 19.19136047 188.09336853 C14.62287909 188.08958668 10.05443051 188.07979444 5.48596191 188.06866455 C0.806401 188.05835625 -3.87316533 188.05385091 -8.55273438 188.04882812 C-17.70183717 188.03816741 -26.85091584 188.02114436 -36 188 C-35.37769717 182.92599447 -34.67843739 177.91138508 -33.765625 172.87890625 C-33.64744415 172.22547745 -33.52926331 171.57204865 -33.40750122 170.89881897 C-33.02431705 168.7862202 -32.63747753 166.67431524 -32.25 164.5625 C-32.11716614 163.83512634 -31.98433228 163.10775269 -31.84747314 162.3583374 C-28.62784118 144.74125579 -25.12101435 127.18955979 -21.37841797 109.67626953 C-20.16599329 103.94222849 -19.12892528 98.18900481 -18.14404297 92.41210938 C-17.08231601 86.26752538 -15.79224733 80.18126954 -14.48046875 74.0859375 C-13.37543824 68.90663421 -12.38961524 63.72037952 -11.5 58.5 C-10.33405699 51.65809265 -8.94324731 44.88149283 -7.48266602 38.09692383 C-6.08823613 31.56266145 -4.90803487 25.00778666 -3.80859375 18.41796875 C-3.12546622 14.49722385 -2.28807193 10.61407936 -1.44946289 6.72387695 C-1.17832169 5.46436722 -0.90718048 4.20485748 -0.62782288 2.90718079 C-0.31705055 1.4681263 -0.31705055 1.4681263 0 0 Z M16 19 C14.80784349 23.06463833 13.70606797 27.0959638 12.88452148 31.25146484 C12.59400658 32.71116196 12.59400658 32.71116196 12.29762268 34.2003479 C11.99367836 35.75246475 11.99367836 35.75246475 11.68359375 37.3359375 C11.4668248 38.43167084 11.25005585 39.52740417 11.02671814 40.65634155 C8.87893607 51.54304862 6.77896309 62.43904515 4.6920166 73.33755493 C3.82279104 77.87680183 2.95138048 82.41562854 2.08010864 86.95448303 C1.64744804 89.20848113 1.21489015 91.46249895 0.78244019 93.71653748 C-0.88694736 102.41676725 -2.56508696 111.11526536 -4.25 119.8125 C-4.4776001 120.98997803 -4.7052002 122.16745605 -4.93969727 123.38061523 C-6.03811338 129.05873383 -7.14319106 134.73544928 -8.26086426 140.4098053 C-8.83042885 143.30369835 -9.39721884 146.19813166 -9.96374512 149.09262085 C-10.23456607 150.47214772 -10.5067482 151.85140819 -10.78039551 153.2303772 C-11.15644662 155.12557539 -11.52755527 157.02175226 -11.8984375 158.91796875 C-12.11161621 159.99844482 -12.32479492 161.0789209 -12.54443359 162.19213867 C-13.10676835 165.18396513 -13.10676835 165.18396513 -13 169 C-5.81776238 169.07059405 1.36439635 169.12335037 8.54691505 169.15543652 C11.88480477 169.17086341 15.22226992 169.19339192 18.56005859 169.22631836 C48.85812968 169.51731678 81.39656356 168.53184708 105.48046875 147.48046875 C120.38085396 132.81109726 127.24613165 112.91346705 132 93 C132.21027832 92.13616699 132.42055664 91.27233398 132.63720703 90.38232422 C136.87750659 72.47100344 139.86490435 51.81592898 130.890625 34.91015625 C124.31066782 25.62916727 111.14346207 22.34359012 100.5703125 20.5078125 C94.10088035 19.58765257 87.93511448 18.87511265 81.390625 18.88647461 C80.67744614 18.88632858 79.96426727 18.88618256 79.22947693 18.8860321 C76.90295224 18.88672147 74.57651047 18.89446747 72.25 18.90234375 C70.6247563 18.90421141 68.99951204 18.90563367 67.37426758 18.90663147 C63.11971451 18.91042927 58.86519618 18.92023587 54.61065674 18.93133545 C50.25997385 18.94160873 45.9092853 18.94614171 41.55859375 18.95117188 C33.03904665 18.96186087 24.51952766 18.97890401 16 19 Z " fill="#FCFCFC" transform="translate(737,673)"/>
</svg>
