<?xml version="1.0" standalone="no"?>
<!DOCTYPE svg PUBLIC "-//W3C//DTD SVG 20010904//EN"
 "http://www.w3.org/TR/2001/REC-SVG-20010904/DTD/svg10.dtd">
<svg version="1.0" xmlns="http://www.w3.org/2000/svg"
 width="840.000000pt" height="859.000000pt" viewBox="0 0 840.000000 859.000000"
 preserveAspectRatio="xMidYMid meet">

<g transform="translate(0.000000,859.000000) scale(0.100000,-0.100000)"
fill="#000000" stroke="none">
<path d="M3746 5913 c-7 -28 -11 -46 -41 -198 -24 -122 -32 -164 -45 -240 -7
-38 -16 -79 -20 -90 -8 -20 -28 -128 -37 -200 -3 -22 -9 -44 -13 -50 -5 -5
-12 -43 -15 -82 -4 -40 -11 -73 -15 -73 -4 0 -10 -21 -14 -47 -9 -69 -32 -196
-38 -213 -9 -26 -38 -186 -38 -212 0 -14 -3 -28 -7 -32 -5 -4 -14 -42 -21 -84
-7 -42 -17 -97 -22 -122 -5 -25 -16 -79 -23 -120 -7 -41 -16 -82 -19 -90 -10
-26 -38 -184 -38 -211 0 -14 -3 -29 -7 -33 -8 -7 -32 -126 -36 -176 l-2 -25
275 0 275 0 13 55 c7 30 17 78 22 105 11 58 37 190 50 255 6 25 16 79 23 120
7 41 16 82 19 90 8 23 29 130 35 180 2 25 7 52 11 60 3 8 12 47 19 85 8 39 18
90 23 115 5 25 15 79 22 120 7 41 17 81 21 88 6 9 69 12 256 12 228 0 251 -2
289 -20 23 -11 42 -27 42 -35 0 -8 5 -15 10 -15 6 0 10 -25 10 -55 0 -30 -4
-55 -8 -55 -7 0 -26 -103 -39 -210 -3 -25 -9 -49 -13 -55 -4 -5 -11 -41 -15
-80 -4 -38 -11 -74 -15 -80 -4 -5 -10 -28 -13 -50 -14 -107 -30 -202 -37 -220
-11 -31 -40 -189 -40 -222 0 -16 -4 -33 -9 -39 -5 -5 -13 -42 -17 -81 l-7 -73
285 0 285 0 10 23 c6 12 17 58 23 102 6 44 16 105 21 135 5 30 15 93 22 140 7
47 16 92 20 100 3 8 8 33 11 55 4 38 25 169 44 280 5 28 14 86 21 130 7 44 18
98 24 120 7 22 12 103 12 181 0 135 -1 143 -29 197 -15 31 -32 57 -37 57 -5 0
-9 6 -9 13 0 7 -14 23 -31 37 -17 14 -40 33 -51 43 -12 9 -27 17 -34 17 -7 0
-14 3 -16 8 -4 10 -75 42 -93 42 -9 0 -23 4 -33 9 -60 33 -154 41 -453 41
l-301 0 7 23 c4 12 13 58 21 102 8 44 19 100 24 125 5 25 15 81 22 125 7 44
16 85 19 90 4 6 9 38 13 73 l7 62 -274 0 -275 0 -6 -27z"/>
<path d="M1654 5323 c-4 -10 -14 -49 -21 -88 -8 -38 -18 -90 -23 -115 -5 -25
-16 -79 -23 -120 -7 -41 -16 -82 -20 -90 -3 -8 -8 -31 -10 -50 -10 -74 -30
-176 -37 -195 -5 -11 -14 -51 -20 -90 -7 -38 -16 -90 -21 -115 -4 -25 -14 -80
-21 -122 -7 -42 -16 -80 -20 -84 -5 -4 -8 -23 -8 -41 0 -19 -4 -43 -10 -53 -5
-10 -13 -50 -16 -89 -4 -39 -11 -71 -15 -71 -5 0 -9 -15 -9 -33 0 -17 -5 -48
-10 -67 -6 -19 -15 -60 -20 -90 -9 -54 -32 -169 -50 -260 -6 -25 -16 -79 -23
-120 -7 -41 -16 -82 -20 -90 -3 -8 -8 -31 -10 -50 -12 -85 -30 -176 -38 -192
-5 -10 -9 -31 -9 -48 l0 -30 279 0 279 0 6 43 c9 75 32 202 38 217 4 8 9 31
12 50 26 166 32 199 39 206 4 4 7 22 7 40 l0 32 353 5 c332 4 403 10 457 37 9
4 30 11 47 14 18 4 55 18 83 32 27 13 54 24 60 24 5 0 10 4 10 9 0 5 10 11 23
15 12 3 32 14 44 26 12 11 25 20 29 20 27 0 244 215 244 242 0 5 8 17 18 28 9
10 28 40 42 67 14 26 28 50 33 51 4 2 7 12 7 22 0 10 4 21 9 25 5 3 13 20 17
37 3 18 10 39 14 48 15 30 33 95 43 154 13 78 13 337 0 397 -12 56 -51 158
-70 180 -7 8 -13 19 -13 24 0 4 -11 18 -25 31 -14 13 -25 26 -25 29 0 8 -27
35 -35 35 -3 0 -16 11 -29 25 -13 14 -28 25 -35 25 -6 0 -11 4 -11 10 0 5 -11
12 -25 16 -14 3 -25 10 -25 15 0 5 -8 9 -17 9 -10 0 -27 7 -37 15 -11 8 -28
15 -38 15 -10 0 -26 4 -36 10 -9 5 -52 16 -96 25 -65 12 -176 15 -646 15 -531
0 -568 -1 -576 -17z m965 -434 c95 -31 141 -63 178 -126 23 -39 24 -49 20
-145 -3 -57 -9 -123 -15 -148 -16 -67 -36 -134 -42 -140 -3 -3 -14 -23 -25
-44 -26 -51 -100 -125 -151 -151 -21 -11 -41 -22 -44 -25 -7 -8 -87 -30 -150
-42 -30 -6 -133 -12 -227 -15 l-173 -4 0 45 c0 25 5 57 10 72 6 14 13 60 17
101 3 40 10 76 14 79 5 3 9 22 9 42 0 20 5 57 11 82 11 47 22 116 42 262 7 47
15 90 20 94 4 4 7 22 7 41 l0 33 232 0 c146 0 245 -4 267 -11z"/>
<path d="M5485 5328 c-11 -31 -25 -106 -25 -135 0 -18 -4 -33 -8 -33 -4 0 -13
-33 -19 -72 -7 -40 -16 -95 -22 -123 -6 -27 -16 -85 -23 -127 -7 -42 -16 -80
-20 -84 -5 -4 -8 -22 -8 -39 0 -18 -4 -45 -10 -61 -5 -16 -14 -56 -19 -89 -5
-33 -17 -96 -26 -140 -26 -125 -34 -164 -48 -245 -7 -41 -16 -82 -20 -90 -6
-16 -10 -39 -29 -167 -6 -46 -15 -83 -20 -83 -4 0 -8 -15 -8 -33 0 -17 -5 -48
-10 -67 -6 -19 -15 -60 -20 -90 -9 -54 -32 -171 -50 -260 -5 -25 -16 -81 -24
-125 -9 -44 -20 -100 -25 -125 -5 -25 -12 -62 -16 -82 l-8 -38 281 0 280 0 5
43 c3 23 10 65 16 92 6 28 17 86 25 130 9 44 20 100 25 125 5 25 15 79 22 122
l13 76 351 5 c334 5 402 10 457 38 10 5 25 9 34 9 9 0 32 7 52 16 69 30 107
49 112 55 3 4 14 9 25 13 11 3 33 17 49 31 16 14 33 25 37 25 24 0 193 171
236 237 9 15 20 30 23 33 5 5 29 47 53 95 30 59 58 127 64 158 3 18 9 34 13
37 15 11 33 153 37 288 5 144 -7 228 -41 307 -7 17 -20 45 -27 63 -8 17 -17
32 -21 32 -5 0 -8 6 -8 13 0 19 -129 147 -150 147 -5 0 -10 4 -10 10 0 5 -11
12 -25 16 -14 3 -25 9 -25 13 0 4 -24 15 -52 25 -29 10 -62 21 -73 26 -11 5
-53 16 -94 24 -62 14 -163 16 -648 16 -450 0 -575 -3 -578 -12z m950 -438 c3
-5 16 -10 29 -10 52 0 139 -62 169 -121 15 -30 18 -53 14 -145 -4 -110 -21
-211 -38 -228 -5 -6 -9 -20 -9 -32 0 -12 -3 -24 -7 -26 -5 -1 -17 -21 -28 -43
-53 -108 -227 -215 -349 -215 -19 0 -38 -4 -41 -10 -4 -6 -75 -10 -181 -10
l-174 0 0 45 c0 25 4 53 9 63 5 9 14 55 21 102 7 47 16 108 21 135 4 28 15 93
24 145 9 52 20 118 24 145 5 28 15 87 22 133 l13 82 237 0 c148 0 240 -4 244
-10z"/>
</g>
</svg>
